<svg width="482" height="155" viewBox="0 0 482 155" fill="none" xmlns="http://www.w3.org/2000/svg">
<path d="M74.9043 108.96C74.9043 105.003 76.5463 101.872 79.8302 99.5688C83.1141 97.2653 87.9653 96.1136 94.3838 96.1136C96.6229 96.1136 98.8992 96.2908 101.213 96.6452C103.601 96.9996 105.542 97.472 107.034 98.0627V86.2797C107.034 83.9172 106.288 82.2339 104.795 81.2299C103.303 80.1667 101.287 79.6352 98.7499 79.6352C96.287 79.6352 94.2719 80.1077 92.7046 81.0527C94.1226 81.4071 95.1675 82.0272 95.8392 82.9131C96.5855 83.74 96.9587 84.685 96.9587 85.7481C96.9587 87.6381 96.1004 89.1738 94.3838 90.355C92.6673 91.5363 90.5029 92.1269 87.8907 92.1269C85.0546 92.1269 82.7782 91.4772 81.0617 90.1778C79.3451 88.8785 78.4868 87.1952 78.4868 85.128C78.4868 83.0608 79.3824 81.1117 81.1736 79.2808C82.9648 77.4499 85.689 75.9733 89.346 74.8511C93.0777 73.7289 97.6677 73.1678 103.116 73.1678C110.505 73.1678 116.102 74.3786 119.909 76.8002C123.715 79.1627 125.618 82.6474 125.618 87.2542V110.732C125.618 113.567 127.335 115.279 130.768 115.87V118.705C129.798 119.768 128.193 120.595 125.954 121.186C123.715 121.776 121.439 122.072 119.125 122.072C114.05 122.072 110.468 120.684 108.378 117.908C106.661 119.089 104.571 120.093 102.108 120.92C99.6455 121.688 96.8468 122.072 93.7121 122.072C88.1146 122.072 83.5619 120.861 80.0541 118.439C76.6209 115.959 74.9043 112.799 74.9043 108.96ZM107.034 104.884C106.213 104.471 105.206 104.117 104.012 103.821C102.892 103.526 101.81 103.378 100.765 103.378C98.6753 103.378 96.9587 103.91 95.6153 104.973C94.2719 105.977 93.6002 107.454 93.6002 109.403C93.6002 110.997 94.2719 112.326 95.6153 113.389C96.9587 114.393 98.7499 114.895 100.989 114.895C102.108 114.895 103.191 114.777 104.236 114.541C105.355 114.246 106.288 113.891 107.034 113.478V104.884ZM198.175 119.237C197.13 120.3 195.562 121.127 193.473 121.717C191.383 122.308 189.144 122.603 186.756 122.603C184.591 122.603 182.464 122.219 180.374 121.451C178.285 120.743 176.829 119.739 176.008 118.439C174.516 119.975 172.65 121.038 170.411 121.629C168.246 122.278 165.522 122.603 162.238 122.603C158.059 122.603 154.215 121.776 150.707 120.123C147.199 118.41 144.363 115.9 142.199 112.592C140.109 109.225 139.064 105.121 139.064 100.278C139.064 94.5485 140.408 89.6758 143.095 85.6595C145.856 81.6433 149.476 78.6311 153.954 76.623C158.432 74.6149 163.358 73.6108 168.731 73.6108C170 73.6108 172.277 73.7289 175.56 73.9652L175.225 68.6495V64.2199C175.225 62.7433 174.702 61.6506 173.657 60.9419C172.612 60.2331 170.635 59.8788 167.724 59.8788V56.2464C170.336 55.1242 173.732 54.1202 177.911 53.2345C182.091 52.3485 185.375 51.9056 187.763 51.9056C189.48 51.9056 190.711 52.2304 191.457 52.8801C192.278 53.4707 192.689 54.5041 192.689 55.9806V111.618C192.689 114.512 194.48 116.224 198.063 116.756L198.175 119.237ZM169.963 115.073C172.277 115.073 174.03 114.541 175.225 113.478V82.4702C173.657 80.7574 171.567 79.901 168.955 79.901C165.671 79.901 163.022 81.2594 161.007 83.9763C159.066 86.6931 158.096 91.0933 158.096 97.1767C158.096 103.024 159.178 107.483 161.343 110.554C163.582 113.567 166.455 115.073 169.963 115.073ZM231.358 58.8156C231.358 61.3553 230.35 63.393 228.335 64.9286C226.394 66.4052 223.782 67.1435 220.498 67.1435C217.289 67.1435 214.714 66.4052 212.774 64.9286C210.908 63.393 209.975 61.3553 209.975 58.8156C209.975 56.335 210.945 54.3269 212.886 52.7915C214.901 51.2559 217.513 50.4881 220.722 50.4881C223.932 50.4881 226.506 51.2559 228.447 52.7915C230.387 54.3269 231.358 56.335 231.358 58.8156ZM229.231 111.883C229.231 113.596 229.753 114.836 230.798 115.604C231.917 116.313 233.597 116.667 235.836 116.667C235.836 118.498 234.977 120.093 233.261 121.451H207.96C206.243 120.093 205.385 118.498 205.385 116.667C207.624 116.667 209.229 116.313 210.199 115.604C211.244 114.836 211.766 113.567 211.766 111.795V86.1025C211.766 84.4488 211.244 83.2675 210.199 82.5588C209.229 81.85 207.288 81.4956 204.377 81.4956V77.5975C206.169 76.7116 209.191 75.7961 213.445 74.8511C217.774 73.847 221.431 73.345 224.417 73.345C226.133 73.345 227.365 73.6699 228.111 74.3195C228.857 74.9102 229.231 75.9438 229.231 77.4203V111.883ZM303.177 119.237C302.132 120.3 300.565 121.127 298.475 121.717C296.386 122.308 294.147 122.603 291.758 122.603C289.594 122.603 287.467 122.219 285.377 121.451C283.287 120.743 281.832 119.739 281.011 118.439C279.518 119.975 277.652 121.038 275.413 121.629C273.249 122.278 270.525 122.603 267.241 122.603C263.061 122.603 259.218 121.776 255.71 120.123C252.202 118.41 249.366 115.9 247.202 112.592C245.112 109.225 244.067 105.121 244.067 100.278C244.067 94.5485 245.411 89.6758 248.097 85.6595C250.859 81.6433 254.479 78.6311 258.957 76.623C263.435 74.6149 268.361 73.6108 273.734 73.6108C275.003 73.6108 277.279 73.7289 280.563 73.9652L280.227 68.6495V64.2199C280.227 62.7433 279.705 61.6506 278.66 60.9419C277.615 60.2331 275.637 59.8788 272.727 59.8788V56.2464C275.339 55.1242 278.735 54.1202 282.914 53.2345C287.094 52.3485 290.378 51.9056 292.766 51.9056C294.482 51.9056 295.714 52.2304 296.46 52.8801C297.281 53.4707 297.692 54.5041 297.692 55.9806V111.618C297.692 114.512 299.483 116.224 303.065 116.756L303.177 119.237ZM274.966 115.073C277.279 115.073 279.033 114.541 280.227 113.478V82.4702C278.66 80.7574 276.57 79.901 273.958 79.901C270.674 79.901 268.025 81.2594 266.01 83.9763C264.069 86.6931 263.099 91.0933 263.099 97.1767C263.099 103.024 264.181 107.483 266.345 110.554C268.584 113.567 271.458 115.073 274.966 115.073Z" fill="#000"/>
<path d="M395.253 0.0096026L369.666 15.2641L378.323 5.55804C371.602 9.08277 363.547 14.4393 353.863 22.0826L342.339 43.434L343.844 30.4963C338.685 35.3264 333.562 41.163 328.999 47.5645L331.401 63.0705L325.388 52.8711C321.091 59.6218 317.442 66.7826 314.997 73.9079C312.419 81.3763 311.179 88.8188 312.031 95.6045L302.144 93.845C305.371 98.8535 309.745 102.732 315.339 105.813L304.813 106.393C309.454 110.924 314.573 113.214 321.805 114.134C322.018 122.203 324.327 129.838 326.302 137.707C326.434 138.232 326.648 138.733 326.938 139.189L331.675 146.639L331.516 138.778C331.505 138.262 331.412 137.745 331.249 137.255C315.166 88.8912 343.052 46.4481 374.684 21.8032L390.622 13L378.468 25.0478C350.118 47.3693 333.358 75.6567 333.565 109.067C338.652 107.555 343.384 105.571 347.538 103.255L342.441 89.4218L352.014 100.54C354.647 98.7348 356.942 96.83 358.844 94.842L348.414 87.0121L361.314 91.8995C362.878 89.8116 363.964 87.6659 364.527 85.5013C368.007 72.4597 371.912 59.3649 385.275 45.3571L370.732 45.6607L390.622 40.1827C393.203 37.9386 395.815 35.3574 397.656 33.11L383.288 36.4405L402.374 26.2322C403.384 24.4628 404.251 22.6612 404.977 20.9019C407.499 14.6018 408.353 8.57791 405.36 4.239C403.891 2.05995 401.114 0.432738 397.698 0.0834662C396.86 0.0089057 395.98 -0.0156584 395.253 0.0096026Z" fill="#000"/>
<path d="M369.844 108.96C369.844 105.003 371.486 101.872 374.77 99.5688C378.054 97.2653 382.905 96.1136 389.324 96.1136C391.563 96.1136 393.839 96.2908 396.153 96.6452C398.541 96.9996 400.482 97.4721 401.974 98.0627V86.2797C401.974 83.9172 401.228 82.2339 399.735 81.2299C398.243 80.1667 396.227 79.6352 393.69 79.6352C391.227 79.6352 389.212 80.1077 387.645 81.0527C389.063 81.4071 390.107 82.0272 390.779 82.9131C391.525 83.74 391.899 84.685 391.899 85.7481C391.899 87.6381 391.04 89.1738 389.324 90.355C387.607 91.5363 385.443 92.1269 382.831 92.1269C379.995 92.1269 377.718 91.4772 376.002 90.1778C374.285 88.8785 373.427 87.1952 373.427 85.128C373.427 83.0608 374.322 81.1117 376.114 79.2808C377.905 77.4499 380.629 75.9733 384.286 74.8511C388.018 73.7289 392.608 73.1678 398.056 73.1678C405.445 73.1678 411.042 74.3786 414.849 76.8002C418.655 79.1627 420.558 82.6474 420.558 87.2542V110.732C420.558 113.567 422.275 115.279 425.708 115.87V118.705C424.738 119.768 423.133 120.595 420.894 121.186C418.655 121.776 416.379 122.072 414.065 122.072C408.99 122.072 405.407 120.684 403.318 117.908C401.601 119.089 399.511 120.093 397.048 120.92C394.586 121.688 391.787 122.072 388.652 122.072C383.055 122.072 378.502 120.861 374.994 118.439C371.561 115.959 369.844 112.799 369.844 108.96ZM401.974 104.884C401.153 104.471 400.146 104.117 398.952 103.821C397.832 103.526 396.75 103.378 395.705 103.378C393.615 103.378 391.899 103.91 390.555 104.973C389.212 105.977 388.54 107.454 388.54 109.403C388.54 110.997 389.212 112.326 390.555 113.389C391.899 114.393 393.69 114.895 395.929 114.895C397.048 114.895 398.131 114.777 399.175 114.541C400.295 114.246 401.228 113.891 401.974 113.478V104.884ZM472.068 73.345C475.426 73.345 477.889 74.0242 479.456 75.3827C481.024 76.7411 481.807 78.6016 481.807 80.9641C481.807 83.5038 480.949 85.571 479.233 87.1656C477.591 88.7603 475.352 89.5577 472.516 89.5577C470.053 89.5577 468.037 88.9966 466.47 87.8744C464.977 86.7522 464.231 85.4233 464.231 83.8877C464.231 82.9427 464.343 82.2044 464.567 81.6728C461.88 82.2044 459.604 83.1199 457.738 84.4192V110.997C457.738 112.474 457.999 113.596 458.522 114.364C459.044 115.132 460.052 115.722 461.544 116.136C463.112 116.49 465.425 116.667 468.485 116.667C468.485 117.73 468.336 118.646 468.037 119.414C467.739 120.123 467.179 120.802 466.358 121.451H436.467C434.751 120.093 433.892 118.498 433.892 116.667C436.057 116.667 437.587 116.313 438.482 115.604C439.453 114.836 439.938 113.567 439.938 111.795V86.1911C439.938 84.5964 439.378 83.4742 438.258 82.8246C437.214 82.1749 435.31 81.85 432.549 81.85V77.8633C435.012 76.7411 438.258 75.7666 442.289 74.9397C446.394 74.0538 449.566 73.6108 451.805 73.6108C453.596 73.6108 454.865 74.1128 455.611 75.1169C456.357 76.121 456.73 78.1291 456.73 81.1413C458.074 79.1331 460.201 77.3317 463.112 75.737C466.022 74.1424 469.008 73.345 472.068 73.345Z" fill="#000"/>
<path d="M48.9147 33.7257L56.0534 23.1961C56.4455 22.6177 57.2948 22.6096 57.6979 23.1804L64.9005 33.3793C67.3321 36.8225 66.6748 41.5618 63.3979 44.2133L59.336 47.5C58.7263 47.9485 57.9956 47.1256 58.513 46.5732L60.2677 44.6997C61.7212 43.148 61.8207 40.7663 60.5017 39.0988L56.8643 34.5L53.1207 39.233C51.8453 40.8456 51.8739 43.1312 53.1894 44.7112L54.7729 46.613C55.2568 47.1943 54.4862 47.9758 53.8982 47.5L50.1878 44.1641C47.215 41.4914 46.6715 37.0346 48.9147 33.7257Z" fill="#000" stroke="#000"/>
<path d="M39.4675 58.2129L42.6417 65.9772C42.7754 66.3043 42.8503 66.6524 42.8629 67.0055L43.3669 81.129L41.7976 96.6007L38.7602 105.584C37.6292 108.929 39.8613 112.467 43.3669 112.887V131.367C43.3669 131.774 43.3173 132.179 43.2192 132.573L42.4232 135.775C41.5832 139.154 39.0466 141.852 35.7264 142.899L34.8553 143.174C34.4976 143.287 34.1219 143.332 33.7478 143.306L26.8706 142.835C25.0685 142.711 23.4731 141.625 22.6973 139.994L21.7741 138.053C21.4328 137.335 21.313 136.532 21.43 135.746L21.8442 132.964C22.1987 130.584 21.2996 128.189 19.4662 126.63L16.3255 123.959C13.7853 121.799 10.5595 120.612 7.22499 120.612C6.68089 120.612 6.15265 120.796 5.72538 121.132L5.38098 121.404C3.135 123.175 1.66237 125.747 1.27222 128.58L1.22414 128.929C1.07542 130.01 1.0754 131.105 1.2241 132.185L1.60687 134.965C1.78838 136.284 2.14285 137.573 2.66111 138.799L3.98588 141.932C5.54005 145.608 8.28474 148.655 11.7791 150.584C14.1629 151.9 16.7956 152.702 19.508 152.94L24.3314 153.362C29.1725 153.786 34.0438 153.726 38.873 153.182L44.9753 152.495C48.5937 152.087 52.0035 150.592 54.7543 148.206L56.1171 147.024C58.3706 145.07 60.1584 142.636 61.3495 139.901L62.4619 137.347C63.6689 134.575 64.2919 131.585 64.2919 128.562V98.5931L63.2456 97.415L60.574 94.8158C59.6065 93.8745 59.0606 92.582 59.0606 91.232V86.8291L62.0292 90.7898C62.4656 91.3721 63.1508 91.7149 63.8786 91.7149C65.3164 91.7149 66.5353 90.6576 66.7385 89.2342L67.2326 85.7733C67.3621 84.8661 67.2398 83.9406 66.879 83.0982L64.2919 77.0575L63.4741 71.9657C63.3264 71.0462 63.5042 70.1041 63.9767 69.3016L67.3077 63.6454C68.2879 61.9808 67.9385 59.8536 66.4774 58.59L65.7004 57.9181C64.7919 57.1325 63.6309 56.7001 62.4298 56.7001H59.3222L53.3063 55.8858L43.9765 51.2996C43.5755 51.1025 43.1346 51 42.6877 51C40.7515 51 39.1819 52.5696 39.1819 54.5058V56.7598C39.1819 57.2581 39.2789 57.7516 39.4675 58.2129Z" fill="#000" stroke="#000"/>
</svg>
